<mxfile host="app.diagrams.net" agent="Mozilla/5.0 (Windows NT 10.0; Win64; x64) AppleWebKit/537.36 (KHTML, like Gecko) Chrome/137.0.0.0 Safari/537.36" version="27.1.6">
  <diagram id="R2lEEEUBdFMjLlhIrx00" name="Page-1">
    <mxGraphModel dx="1853" dy="1188" grid="1" gridSize="8" guides="1" tooltips="1" connect="1" arrows="1" fold="1" page="0" pageScale="1" pageWidth="850" pageHeight="1100" math="0" shadow="0" extFonts="Permanent Marker^https://fonts.googleapis.com/css?family=Permanent+Marker">
      <root>
        <mxCell id="0" />
        <mxCell id="1" parent="0" />
        <mxCell id="VcmZQetqtOM01CaguKcr-116" style="edgeStyle=orthogonalEdgeStyle;rounded=1;orthogonalLoop=1;jettySize=auto;html=1;exitX=0;exitY=0.5;exitDx=0;exitDy=0;entryX=0;entryY=0.5;entryDx=0;entryDy=0;" edge="1" parent="1" source="VcmZQetqtOM01CaguKcr-101" target="VcmZQetqtOM01CaguKcr-104">
          <mxGeometry relative="1" as="geometry">
            <Array as="points">
              <mxPoint x="1544" y="55" />
              <mxPoint x="1544" y="85" />
            </Array>
          </mxGeometry>
        </mxCell>
        <mxCell id="C-vyLk0tnHw3VtMMgP7b-12" value="" style="edgeStyle=entityRelationEdgeStyle;endArrow=ERzeroToMany;startArrow=ERone;endFill=1;startFill=0;labelBackgroundColor=none;fontColor=default;" parent="1" target="C-vyLk0tnHw3VtMMgP7b-17" edge="1">
          <mxGeometry width="100" height="100" relative="1" as="geometry">
            <mxPoint x="700" y="165" as="sourcePoint" />
            <mxPoint x="460" y="205" as="targetPoint" />
          </mxGeometry>
        </mxCell>
        <mxCell id="VcmZQetqtOM01CaguKcr-56" style="rounded=1;orthogonalLoop=1;jettySize=auto;html=1;exitX=0.5;exitY=1;exitDx=0;exitDy=0;entryX=0.5;entryY=0;entryDx=0;entryDy=0;endArrow=none;startFill=0;labelBackgroundColor=none;fontColor=default;" edge="1" parent="1" source="VcmZQetqtOM01CaguKcr-8" target="VcmZQetqtOM01CaguKcr-26">
          <mxGeometry relative="1" as="geometry" />
        </mxCell>
        <mxCell id="VcmZQetqtOM01CaguKcr-8" value="CLIENTE" style="rounded=1;arcSize=10;whiteSpace=wrap;html=1;align=center;labelBackgroundColor=none;" vertex="1" parent="1">
          <mxGeometry x="152" y="264" width="100" height="40" as="geometry" />
        </mxCell>
        <mxCell id="VcmZQetqtOM01CaguKcr-58" style="rounded=1;orthogonalLoop=1;jettySize=auto;html=1;exitX=0;exitY=0.5;exitDx=0;exitDy=0;entryX=1;entryY=0.5;entryDx=0;entryDy=0;endArrow=none;startFill=0;labelBackgroundColor=none;fontColor=default;" edge="1" parent="1" source="VcmZQetqtOM01CaguKcr-9" target="VcmZQetqtOM01CaguKcr-28">
          <mxGeometry relative="1" as="geometry" />
        </mxCell>
        <mxCell id="VcmZQetqtOM01CaguKcr-59" style="rounded=1;orthogonalLoop=1;jettySize=auto;html=1;exitX=0;exitY=1;exitDx=0;exitDy=0;entryX=1;entryY=0.5;entryDx=0;entryDy=0;endArrow=none;startFill=0;labelBackgroundColor=none;fontColor=default;" edge="1" parent="1" source="VcmZQetqtOM01CaguKcr-9" target="VcmZQetqtOM01CaguKcr-27">
          <mxGeometry relative="1" as="geometry" />
        </mxCell>
        <mxCell id="VcmZQetqtOM01CaguKcr-9" value="GESTOR" style="rounded=1;arcSize=10;whiteSpace=wrap;html=1;align=center;labelBackgroundColor=none;" vertex="1" parent="1">
          <mxGeometry x="152" y="600" width="100" height="40" as="geometry" />
        </mxCell>
        <mxCell id="VcmZQetqtOM01CaguKcr-29" style="rounded=1;orthogonalLoop=1;jettySize=auto;html=1;exitX=1;exitY=0.5;exitDx=0;exitDy=0;entryX=0;entryY=0.5;entryDx=0;entryDy=0;startArrow=none;startFill=0;endArrow=none;labelBackgroundColor=none;fontColor=default;" edge="1" parent="1" source="VcmZQetqtOM01CaguKcr-11" target="VcmZQetqtOM01CaguKcr-8">
          <mxGeometry relative="1" as="geometry" />
        </mxCell>
        <mxCell id="VcmZQetqtOM01CaguKcr-11" value="UUID" style="ellipse;whiteSpace=wrap;html=1;align=center;fontStyle=4;labelBackgroundColor=none;rounded=1;" vertex="1" parent="1">
          <mxGeometry x="-144" y="264" width="100" height="40" as="geometry" />
        </mxCell>
        <mxCell id="VcmZQetqtOM01CaguKcr-32" style="rounded=1;orthogonalLoop=1;jettySize=auto;html=1;exitX=1;exitY=1;exitDx=0;exitDy=0;entryX=0;entryY=0;entryDx=0;entryDy=0;endArrow=none;startFill=0;jumpSize=6;startArrow=none;labelBackgroundColor=none;fontColor=default;" edge="1" parent="1" source="VcmZQetqtOM01CaguKcr-12" target="VcmZQetqtOM01CaguKcr-8">
          <mxGeometry relative="1" as="geometry" />
        </mxCell>
        <mxCell id="VcmZQetqtOM01CaguKcr-12" value="NOMBRE" style="ellipse;whiteSpace=wrap;html=1;align=center;labelBackgroundColor=none;rounded=1;" vertex="1" parent="1">
          <mxGeometry x="-120" y="192" width="100" height="40" as="geometry" />
        </mxCell>
        <mxCell id="VcmZQetqtOM01CaguKcr-48" style="rounded=1;orthogonalLoop=1;jettySize=auto;html=1;exitX=0.5;exitY=1;exitDx=0;exitDy=0;entryX=0.5;entryY=0;entryDx=0;entryDy=0;endArrow=none;startFill=0;startArrow=none;labelBackgroundColor=none;fontColor=default;" edge="1" parent="1" source="VcmZQetqtOM01CaguKcr-13" target="VcmZQetqtOM01CaguKcr-19">
          <mxGeometry relative="1" as="geometry" />
        </mxCell>
        <mxCell id="VcmZQetqtOM01CaguKcr-13" value="CALLE" style="ellipse;whiteSpace=wrap;html=1;align=center;labelBackgroundColor=none;rounded=1;" vertex="1" parent="1">
          <mxGeometry x="112" y="16" width="100" height="40" as="geometry" />
        </mxCell>
        <mxCell id="VcmZQetqtOM01CaguKcr-49" style="rounded=1;orthogonalLoop=1;jettySize=auto;html=1;exitX=0.5;exitY=1;exitDx=0;exitDy=0;entryX=1;entryY=0;entryDx=0;entryDy=0;endArrow=none;startFill=0;startArrow=none;labelBackgroundColor=none;fontColor=default;" edge="1" parent="1" source="VcmZQetqtOM01CaguKcr-14" target="VcmZQetqtOM01CaguKcr-19">
          <mxGeometry relative="1" as="geometry" />
        </mxCell>
        <mxCell id="VcmZQetqtOM01CaguKcr-14" value="BARRIO" style="ellipse;whiteSpace=wrap;html=1;align=center;labelBackgroundColor=none;rounded=1;" vertex="1" parent="1">
          <mxGeometry x="252" y="16" width="100" height="40" as="geometry" />
        </mxCell>
        <mxCell id="VcmZQetqtOM01CaguKcr-47" style="rounded=1;orthogonalLoop=1;jettySize=auto;html=1;exitX=1;exitY=1;exitDx=0;exitDy=0;entryX=0;entryY=0;entryDx=0;entryDy=0;endArrow=none;startFill=0;startArrow=none;labelBackgroundColor=none;fontColor=default;" edge="1" parent="1" source="VcmZQetqtOM01CaguKcr-15" target="VcmZQetqtOM01CaguKcr-19">
          <mxGeometry relative="1" as="geometry" />
        </mxCell>
        <mxCell id="VcmZQetqtOM01CaguKcr-15" value="PROVINCIA" style="ellipse;whiteSpace=wrap;html=1;align=center;labelBackgroundColor=none;rounded=1;" vertex="1" parent="1">
          <mxGeometry x="-24" y="48" width="100" height="40" as="geometry" />
        </mxCell>
        <mxCell id="VcmZQetqtOM01CaguKcr-46" style="rounded=1;orthogonalLoop=1;jettySize=auto;html=1;exitX=1;exitY=0.5;exitDx=0;exitDy=0;entryX=0;entryY=0.5;entryDx=0;entryDy=0;endArrow=none;startFill=0;startArrow=none;labelBackgroundColor=none;fontColor=default;" edge="1" parent="1" source="VcmZQetqtOM01CaguKcr-16" target="VcmZQetqtOM01CaguKcr-19">
          <mxGeometry relative="1" as="geometry" />
        </mxCell>
        <mxCell id="VcmZQetqtOM01CaguKcr-16" value="LOCALIDAD" style="ellipse;whiteSpace=wrap;html=1;align=center;labelBackgroundColor=none;rounded=1;" vertex="1" parent="1">
          <mxGeometry x="-80" y="120" width="100" height="40" as="geometry" />
        </mxCell>
        <mxCell id="VcmZQetqtOM01CaguKcr-55" style="rounded=1;orthogonalLoop=1;jettySize=auto;html=1;exitX=0;exitY=1;exitDx=0;exitDy=0;entryX=1;entryY=0;entryDx=0;entryDy=0;endArrow=none;startFill=0;startArrow=none;labelBackgroundColor=none;fontColor=default;" edge="1" parent="1" source="VcmZQetqtOM01CaguKcr-17" target="VcmZQetqtOM01CaguKcr-8">
          <mxGeometry relative="1" as="geometry" />
        </mxCell>
        <mxCell id="VcmZQetqtOM01CaguKcr-17" value="NACIMIENTO" style="ellipse;whiteSpace=wrap;html=1;align=center;labelBackgroundColor=none;rounded=1;" vertex="1" parent="1">
          <mxGeometry x="428" y="136" width="100" height="40" as="geometry" />
        </mxCell>
        <mxCell id="VcmZQetqtOM01CaguKcr-50" style="rounded=1;orthogonalLoop=1;jettySize=auto;html=1;exitX=0;exitY=0.5;exitDx=0;exitDy=0;entryX=1;entryY=0.5;entryDx=0;entryDy=0;endArrow=none;startFill=0;startArrow=none;labelBackgroundColor=none;fontColor=default;" edge="1" parent="1" source="VcmZQetqtOM01CaguKcr-18" target="VcmZQetqtOM01CaguKcr-19">
          <mxGeometry relative="1" as="geometry" />
        </mxCell>
        <mxCell id="VcmZQetqtOM01CaguKcr-18" value="ALTURA" style="ellipse;whiteSpace=wrap;html=1;align=center;labelBackgroundColor=none;rounded=1;" vertex="1" parent="1">
          <mxGeometry x="364" y="80" width="100" height="40" as="geometry" />
        </mxCell>
        <mxCell id="VcmZQetqtOM01CaguKcr-45" style="rounded=1;orthogonalLoop=1;jettySize=auto;html=1;exitX=0.5;exitY=1;exitDx=0;exitDy=0;entryX=0.5;entryY=0;entryDx=0;entryDy=0;endArrow=none;startFill=0;labelBackgroundColor=none;fontColor=default;" edge="1" parent="1" source="VcmZQetqtOM01CaguKcr-19" target="VcmZQetqtOM01CaguKcr-8">
          <mxGeometry relative="1" as="geometry" />
        </mxCell>
        <mxCell id="VcmZQetqtOM01CaguKcr-19" value="DIRECCION" style="ellipse;whiteSpace=wrap;html=1;align=center;labelBackgroundColor=none;rounded=1;" vertex="1" parent="1">
          <mxGeometry x="152" y="120" width="100" height="40" as="geometry" />
        </mxCell>
        <mxCell id="VcmZQetqtOM01CaguKcr-54" style="rounded=1;orthogonalLoop=1;jettySize=auto;html=1;exitX=0;exitY=1;exitDx=0;exitDy=0;entryX=1;entryY=0.25;entryDx=0;entryDy=0;endArrow=none;startFill=0;startArrow=none;labelBackgroundColor=none;fontColor=default;" edge="1" parent="1" source="VcmZQetqtOM01CaguKcr-24" target="VcmZQetqtOM01CaguKcr-8">
          <mxGeometry relative="1" as="geometry" />
        </mxCell>
        <mxCell id="VcmZQetqtOM01CaguKcr-24" value="EDAD" style="ellipse;whiteSpace=wrap;html=1;align=center;dashed=1;labelBackgroundColor=none;rounded=1;" vertex="1" parent="1">
          <mxGeometry x="440" y="200" width="100" height="40" as="geometry" />
        </mxCell>
        <mxCell id="VcmZQetqtOM01CaguKcr-53" style="rounded=1;orthogonalLoop=1;jettySize=auto;html=1;exitX=0;exitY=0.5;exitDx=0;exitDy=0;endArrow=none;startFill=0;startArrow=none;labelBackgroundColor=none;fontColor=default;" edge="1" parent="1" source="VcmZQetqtOM01CaguKcr-25">
          <mxGeometry relative="1" as="geometry">
            <mxPoint x="256" y="284.1428571428572" as="targetPoint" />
          </mxGeometry>
        </mxCell>
        <mxCell id="VcmZQetqtOM01CaguKcr-25" value="TELEFONO" style="ellipse;shape=doubleEllipse;margin=3;whiteSpace=wrap;html=1;align=center;labelBackgroundColor=none;rounded=1;" vertex="1" parent="1">
          <mxGeometry x="464" y="264" width="100" height="40" as="geometry" />
        </mxCell>
        <mxCell id="VcmZQetqtOM01CaguKcr-57" style="rounded=1;orthogonalLoop=1;jettySize=auto;html=1;exitX=0.5;exitY=1;exitDx=0;exitDy=0;entryX=0.5;entryY=0;entryDx=0;entryDy=0;endArrow=none;startFill=0;labelBackgroundColor=none;fontColor=default;" edge="1" parent="1" source="VcmZQetqtOM01CaguKcr-26" target="VcmZQetqtOM01CaguKcr-9">
          <mxGeometry relative="1" as="geometry" />
        </mxCell>
        <mxCell id="VcmZQetqtOM01CaguKcr-26" value="TIENE" style="shape=rhombus;perimeter=rhombusPerimeter;whiteSpace=wrap;html=1;align=center;labelBackgroundColor=none;rounded=1;" vertex="1" parent="1">
          <mxGeometry x="142" y="416" width="120" height="60" as="geometry" />
        </mxCell>
        <mxCell id="VcmZQetqtOM01CaguKcr-27" value="UUID" style="ellipse;whiteSpace=wrap;html=1;align=center;fontStyle=4;labelBackgroundColor=none;rounded=1;" vertex="1" parent="1">
          <mxGeometry x="-120" y="672" width="100" height="40" as="geometry" />
        </mxCell>
        <mxCell id="VcmZQetqtOM01CaguKcr-28" value="NOMBRE" style="ellipse;whiteSpace=wrap;html=1;align=center;labelBackgroundColor=none;rounded=1;" vertex="1" parent="1">
          <mxGeometry x="-144" y="600" width="100" height="40" as="geometry" />
        </mxCell>
        <mxCell id="VcmZQetqtOM01CaguKcr-60" value="&lt;font style=&quot;font-size: 14px;&quot;&gt;&lt;b&gt;MODELO ENTIDAD - RELACION&lt;/b&gt;&lt;/font&gt;" style="text;strokeColor=none;fillColor=none;spacingLeft=4;spacingRight=4;overflow=hidden;rotatable=0;points=[[0,0.5],[1,0.5]];portConstraint=eastwest;fontSize=12;whiteSpace=wrap;html=1;" vertex="1" parent="1">
          <mxGeometry x="101" y="-48" width="235" height="30" as="geometry" />
        </mxCell>
        <mxCell id="VcmZQetqtOM01CaguKcr-61" value="(0:1)" style="text;strokeColor=none;fillColor=none;spacingLeft=4;spacingRight=4;overflow=hidden;rotatable=0;points=[[0,0.5],[1,0.5]];portConstraint=eastwest;fontSize=12;whiteSpace=wrap;html=1;" vertex="1" parent="1">
          <mxGeometry x="212" y="304" width="40" height="30" as="geometry" />
        </mxCell>
        <mxCell id="VcmZQetqtOM01CaguKcr-62" value="(1:1)" style="text;strokeColor=none;fillColor=none;spacingLeft=4;spacingRight=4;overflow=hidden;rotatable=0;points=[[0,0.5],[1,0.5]];portConstraint=eastwest;fontSize=12;whiteSpace=wrap;html=1;" vertex="1" parent="1">
          <mxGeometry x="272" y="431" width="40" height="30" as="geometry" />
        </mxCell>
        <mxCell id="VcmZQetqtOM01CaguKcr-63" value="(0:1)" style="text;strokeColor=none;fillColor=none;spacingLeft=4;spacingRight=4;overflow=hidden;rotatable=0;points=[[0,0.5],[1,0.5]];portConstraint=eastwest;fontSize=12;whiteSpace=wrap;html=1;" vertex="1" parent="1">
          <mxGeometry x="212" y="560" width="40" height="30" as="geometry" />
        </mxCell>
        <mxCell id="VcmZQetqtOM01CaguKcr-64" value="&lt;font style=&quot;font-size: 14px;&quot;&gt;&lt;b&gt;MODELO ENTIDAD - RELACION&lt;/b&gt;&lt;/font&gt;" style="text;strokeColor=none;fillColor=none;spacingLeft=4;spacingRight=4;overflow=hidden;rotatable=0;points=[[0,0.5],[1,0.5]];portConstraint=eastwest;fontSize=12;whiteSpace=wrap;html=1;" vertex="1" parent="1">
          <mxGeometry x="888" y="-48" width="235" height="30" as="geometry" />
        </mxCell>
        <mxCell id="VcmZQetqtOM01CaguKcr-65" value="CADA EMPLEADO PUEDE SER JEFE DE 1 SOLO EMPLEADO Y CADA EMPLEADO SOLO PUEDE TENER 1 JEFE" style="text;strokeColor=none;fillColor=none;spacingLeft=4;spacingRight=4;overflow=hidden;rotatable=0;points=[[0,0.5],[1,0.5]];portConstraint=eastwest;fontSize=12;whiteSpace=wrap;html=1;align=center;" vertex="1" parent="1">
          <mxGeometry x="1352" y="40" width="152" height="96" as="geometry" />
        </mxCell>
        <mxCell id="VcmZQetqtOM01CaguKcr-68" style="edgeStyle=orthogonalEdgeStyle;rounded=1;orthogonalLoop=1;jettySize=auto;html=1;exitX=0.5;exitY=0;exitDx=0;exitDy=0;entryX=0.5;entryY=0;entryDx=0;entryDy=0;endArrow=none;startFill=0;" edge="1" parent="1" source="VcmZQetqtOM01CaguKcr-66" target="VcmZQetqtOM01CaguKcr-67">
          <mxGeometry relative="1" as="geometry">
            <Array as="points">
              <mxPoint x="778" y="8" />
              <mxPoint x="1210" y="8" />
            </Array>
          </mxGeometry>
        </mxCell>
        <mxCell id="VcmZQetqtOM01CaguKcr-66" value="EMPLEADO" style="rounded=1;arcSize=10;whiteSpace=wrap;html=1;align=center;" vertex="1" parent="1">
          <mxGeometry x="728" y="64" width="100" height="40" as="geometry" />
        </mxCell>
        <mxCell id="VcmZQetqtOM01CaguKcr-69" style="edgeStyle=orthogonalEdgeStyle;rounded=1;orthogonalLoop=1;jettySize=auto;html=1;exitX=0.5;exitY=1;exitDx=0;exitDy=0;entryX=0.5;entryY=1;entryDx=0;entryDy=0;endArrow=none;startFill=0;" edge="1" parent="1" source="VcmZQetqtOM01CaguKcr-67" target="VcmZQetqtOM01CaguKcr-66">
          <mxGeometry relative="1" as="geometry">
            <Array as="points">
              <mxPoint x="1210" y="168" />
              <mxPoint x="778" y="168" />
            </Array>
          </mxGeometry>
        </mxCell>
        <mxCell id="VcmZQetqtOM01CaguKcr-67" value="ES JEFE" style="rounded=1;arcSize=10;whiteSpace=wrap;html=1;align=center;" vertex="1" parent="1">
          <mxGeometry x="1160" y="64" width="100" height="40" as="geometry" />
        </mxCell>
        <mxCell id="VcmZQetqtOM01CaguKcr-70" value="(1:1)" style="text;strokeColor=none;fillColor=none;spacingLeft=4;spacingRight=4;overflow=hidden;rotatable=0;points=[[0,0.5],[1,0.5]];portConstraint=eastwest;fontSize=12;whiteSpace=wrap;html=1;" vertex="1" parent="1">
          <mxGeometry x="788" y="29" width="40" height="30" as="geometry" />
        </mxCell>
        <mxCell id="VcmZQetqtOM01CaguKcr-71" value="(1:1)" style="text;strokeColor=none;fillColor=none;spacingLeft=4;spacingRight=4;overflow=hidden;rotatable=0;points=[[0,0.5],[1,0.5]];portConstraint=eastwest;fontSize=12;whiteSpace=wrap;html=1;" vertex="1" parent="1">
          <mxGeometry x="788" y="120" width="40" height="30" as="geometry" />
        </mxCell>
        <mxCell id="VcmZQetqtOM01CaguKcr-72" style="edgeStyle=orthogonalEdgeStyle;rounded=1;orthogonalLoop=1;jettySize=auto;html=1;exitX=0.5;exitY=0;exitDx=0;exitDy=0;entryX=0.5;entryY=0;entryDx=0;entryDy=0;endArrow=none;startFill=0;" edge="1" parent="1" source="VcmZQetqtOM01CaguKcr-73" target="VcmZQetqtOM01CaguKcr-75">
          <mxGeometry relative="1" as="geometry">
            <Array as="points">
              <mxPoint x="778" y="260" />
              <mxPoint x="1210" y="260" />
            </Array>
          </mxGeometry>
        </mxCell>
        <mxCell id="VcmZQetqtOM01CaguKcr-73" value="EMPLEADO" style="rounded=1;arcSize=10;whiteSpace=wrap;html=1;align=center;" vertex="1" parent="1">
          <mxGeometry x="728" y="316" width="100" height="40" as="geometry" />
        </mxCell>
        <mxCell id="VcmZQetqtOM01CaguKcr-74" style="edgeStyle=orthogonalEdgeStyle;rounded=1;orthogonalLoop=1;jettySize=auto;html=1;exitX=0.5;exitY=1;exitDx=0;exitDy=0;entryX=0.5;entryY=1;entryDx=0;entryDy=0;endArrow=none;startFill=0;" edge="1" parent="1" source="VcmZQetqtOM01CaguKcr-75" target="VcmZQetqtOM01CaguKcr-73">
          <mxGeometry relative="1" as="geometry">
            <Array as="points">
              <mxPoint x="1210" y="420" />
              <mxPoint x="778" y="420" />
            </Array>
          </mxGeometry>
        </mxCell>
        <mxCell id="VcmZQetqtOM01CaguKcr-75" value="ES JEFE" style="rounded=1;arcSize=10;whiteSpace=wrap;html=1;align=center;" vertex="1" parent="1">
          <mxGeometry x="1160" y="316" width="100" height="40" as="geometry" />
        </mxCell>
        <mxCell id="VcmZQetqtOM01CaguKcr-76" value="(0:1)" style="text;strokeColor=none;fillColor=none;spacingLeft=4;spacingRight=4;overflow=hidden;rotatable=0;points=[[0,0.5],[1,0.5]];portConstraint=eastwest;fontSize=12;whiteSpace=wrap;html=1;" vertex="1" parent="1">
          <mxGeometry x="788" y="281" width="40" height="30" as="geometry" />
        </mxCell>
        <mxCell id="VcmZQetqtOM01CaguKcr-77" value="(0:1)" style="text;strokeColor=none;fillColor=none;spacingLeft=4;spacingRight=4;overflow=hidden;rotatable=0;points=[[0,0.5],[1,0.5]];portConstraint=eastwest;fontSize=12;whiteSpace=wrap;html=1;" vertex="1" parent="1">
          <mxGeometry x="788" y="372" width="40" height="30" as="geometry" />
        </mxCell>
        <mxCell id="VcmZQetqtOM01CaguKcr-78" style="edgeStyle=orthogonalEdgeStyle;rounded=1;orthogonalLoop=1;jettySize=auto;html=1;exitX=0.5;exitY=0;exitDx=0;exitDy=0;entryX=0.5;entryY=0;entryDx=0;entryDy=0;endArrow=none;startFill=0;" edge="1" parent="1" source="VcmZQetqtOM01CaguKcr-79" target="VcmZQetqtOM01CaguKcr-81">
          <mxGeometry relative="1" as="geometry">
            <Array as="points">
              <mxPoint x="778" y="504" />
              <mxPoint x="1210" y="504" />
            </Array>
          </mxGeometry>
        </mxCell>
        <mxCell id="VcmZQetqtOM01CaguKcr-79" value="EMPLEADO" style="rounded=1;arcSize=10;whiteSpace=wrap;html=1;align=center;" vertex="1" parent="1">
          <mxGeometry x="728" y="560" width="100" height="40" as="geometry" />
        </mxCell>
        <mxCell id="VcmZQetqtOM01CaguKcr-80" style="edgeStyle=orthogonalEdgeStyle;rounded=1;orthogonalLoop=1;jettySize=auto;html=1;exitX=0.5;exitY=1;exitDx=0;exitDy=0;entryX=0.5;entryY=1;entryDx=0;entryDy=0;endArrow=none;startFill=0;" edge="1" parent="1" source="VcmZQetqtOM01CaguKcr-81" target="VcmZQetqtOM01CaguKcr-79">
          <mxGeometry relative="1" as="geometry">
            <Array as="points">
              <mxPoint x="1210" y="664" />
              <mxPoint x="778" y="664" />
            </Array>
          </mxGeometry>
        </mxCell>
        <mxCell id="VcmZQetqtOM01CaguKcr-81" value="ES JEFE" style="rounded=1;arcSize=10;whiteSpace=wrap;html=1;align=center;" vertex="1" parent="1">
          <mxGeometry x="1160" y="560" width="100" height="40" as="geometry" />
        </mxCell>
        <mxCell id="VcmZQetqtOM01CaguKcr-82" value="(0:N)" style="text;strokeColor=none;fillColor=none;spacingLeft=4;spacingRight=4;overflow=hidden;rotatable=0;points=[[0,0.5],[1,0.5]];portConstraint=eastwest;fontSize=12;whiteSpace=wrap;html=1;" vertex="1" parent="1">
          <mxGeometry x="788" y="525" width="40" height="30" as="geometry" />
        </mxCell>
        <mxCell id="VcmZQetqtOM01CaguKcr-83" value="(1:N)" style="text;strokeColor=none;fillColor=none;spacingLeft=4;spacingRight=4;overflow=hidden;rotatable=0;points=[[0,0.5],[1,0.5]];portConstraint=eastwest;fontSize=12;whiteSpace=wrap;html=1;" vertex="1" parent="1">
          <mxGeometry x="788" y="616" width="40" height="30" as="geometry" />
        </mxCell>
        <mxCell id="VcmZQetqtOM01CaguKcr-84" style="edgeStyle=orthogonalEdgeStyle;rounded=1;orthogonalLoop=1;jettySize=auto;html=1;exitX=0.5;exitY=0;exitDx=0;exitDy=0;entryX=0.5;entryY=0;entryDx=0;entryDy=0;endArrow=none;startFill=0;" edge="1" parent="1" source="VcmZQetqtOM01CaguKcr-85" target="VcmZQetqtOM01CaguKcr-87">
          <mxGeometry relative="1" as="geometry">
            <Array as="points">
              <mxPoint x="778" y="752" />
              <mxPoint x="1210" y="752" />
            </Array>
          </mxGeometry>
        </mxCell>
        <mxCell id="VcmZQetqtOM01CaguKcr-85" value="EMPLEADO" style="rounded=1;arcSize=10;whiteSpace=wrap;html=1;align=center;" vertex="1" parent="1">
          <mxGeometry x="728" y="808" width="100" height="40" as="geometry" />
        </mxCell>
        <mxCell id="VcmZQetqtOM01CaguKcr-86" style="edgeStyle=orthogonalEdgeStyle;rounded=1;orthogonalLoop=1;jettySize=auto;html=1;exitX=0.5;exitY=1;exitDx=0;exitDy=0;entryX=0.5;entryY=1;entryDx=0;entryDy=0;endArrow=none;startFill=0;" edge="1" parent="1" source="VcmZQetqtOM01CaguKcr-87" target="VcmZQetqtOM01CaguKcr-85">
          <mxGeometry relative="1" as="geometry">
            <Array as="points">
              <mxPoint x="1210" y="912" />
              <mxPoint x="778" y="912" />
            </Array>
          </mxGeometry>
        </mxCell>
        <mxCell id="VcmZQetqtOM01CaguKcr-87" value="ES JEFE" style="rounded=1;arcSize=10;whiteSpace=wrap;html=1;align=center;" vertex="1" parent="1">
          <mxGeometry x="1160" y="808" width="100" height="40" as="geometry" />
        </mxCell>
        <mxCell id="VcmZQetqtOM01CaguKcr-88" value="(0:1)" style="text;strokeColor=none;fillColor=none;spacingLeft=4;spacingRight=4;overflow=hidden;rotatable=0;points=[[0,0.5],[1,0.5]];portConstraint=eastwest;fontSize=12;whiteSpace=wrap;html=1;" vertex="1" parent="1">
          <mxGeometry x="788" y="773" width="40" height="30" as="geometry" />
        </mxCell>
        <mxCell id="VcmZQetqtOM01CaguKcr-89" value="(0:N)" style="text;strokeColor=none;fillColor=none;spacingLeft=4;spacingRight=4;overflow=hidden;rotatable=0;points=[[0,0.5],[1,0.5]];portConstraint=eastwest;fontSize=12;whiteSpace=wrap;html=1;" vertex="1" parent="1">
          <mxGeometry x="788" y="864" width="40" height="30" as="geometry" />
        </mxCell>
        <mxCell id="VcmZQetqtOM01CaguKcr-93" value="(1:1)" style="text;strokeColor=none;fillColor=none;spacingLeft=4;spacingRight=4;overflow=hidden;rotatable=0;points=[[0,0.5],[1,0.5]];portConstraint=eastwest;fontSize=12;whiteSpace=wrap;html=1;" vertex="1" parent="1">
          <mxGeometry x="1272" y="69" width="40" height="30" as="geometry" />
        </mxCell>
        <mxCell id="VcmZQetqtOM01CaguKcr-94" value="CADA EMPLEADO PUEDE SER JEFE DE 1 O NINGUN EMPLEADO Y CADA EMPLEADO PUEDE NO TENER NINGUN JEFE O TENER 1 SOLO" style="text;strokeColor=none;fillColor=none;spacingLeft=4;spacingRight=4;overflow=hidden;rotatable=0;points=[[0,0.5],[1,0.5]];portConstraint=eastwest;fontSize=12;whiteSpace=wrap;html=1;align=center;" vertex="1" parent="1">
          <mxGeometry x="1360" y="288" width="152" height="128" as="geometry" />
        </mxCell>
        <mxCell id="VcmZQetqtOM01CaguKcr-95" value="(1:1)" style="text;strokeColor=none;fillColor=none;spacingLeft=4;spacingRight=4;overflow=hidden;rotatable=0;points=[[0,0.5],[1,0.5]];portConstraint=eastwest;fontSize=12;whiteSpace=wrap;html=1;" vertex="1" parent="1">
          <mxGeometry x="1280" y="317" width="40" height="30" as="geometry" />
        </mxCell>
        <mxCell id="VcmZQetqtOM01CaguKcr-96" value="CADA EMPLEADO PUEDE SER JEFE DE NINGUN O VARIOS EMPLEADOS Y CADA EMPLEADO PUEDE NO TENER NINGUN O TENER VARIOS JEFES" style="text;strokeColor=none;fillColor=none;spacingLeft=4;spacingRight=4;overflow=hidden;rotatable=0;points=[[0,0.5],[1,0.5]];portConstraint=eastwest;fontSize=12;whiteSpace=wrap;html=1;align=center;" vertex="1" parent="1">
          <mxGeometry x="1352" y="532" width="152" height="124" as="geometry" />
        </mxCell>
        <mxCell id="VcmZQetqtOM01CaguKcr-97" value="(1:N)" style="text;strokeColor=none;fillColor=none;spacingLeft=4;spacingRight=4;overflow=hidden;rotatable=0;points=[[0,0.5],[1,0.5]];portConstraint=eastwest;fontSize=12;whiteSpace=wrap;html=1;" vertex="1" parent="1">
          <mxGeometry x="1272" y="561" width="40" height="30" as="geometry" />
        </mxCell>
        <mxCell id="VcmZQetqtOM01CaguKcr-98" value="CADA EMPLEADO PUEDE SER JEFE DE NINGUN O UN SOLO EMPLEADO Y CADA EMPLEADO PUEDE NO TENER NINGUN O TENER VARIOS JEFES" style="text;strokeColor=none;fillColor=none;spacingLeft=4;spacingRight=4;overflow=hidden;rotatable=0;points=[[0,0.5],[1,0.5]];portConstraint=eastwest;fontSize=12;whiteSpace=wrap;html=1;align=center;" vertex="1" parent="1">
          <mxGeometry x="1352" y="780" width="152" height="124" as="geometry" />
        </mxCell>
        <mxCell id="VcmZQetqtOM01CaguKcr-99" value="(1:N)" style="text;strokeColor=none;fillColor=none;spacingLeft=4;spacingRight=4;overflow=hidden;rotatable=0;points=[[0,0.5],[1,0.5]];portConstraint=eastwest;fontSize=12;whiteSpace=wrap;html=1;" vertex="1" parent="1">
          <mxGeometry x="1272" y="809" width="40" height="30" as="geometry" />
        </mxCell>
        <mxCell id="VcmZQetqtOM01CaguKcr-100" value="EMPLEADO" style="shape=table;startSize=30;container=1;collapsible=1;childLayout=tableLayout;fixedRows=1;rowLines=0;fontStyle=1;align=center;resizeLast=1;html=1;rounded=1;" vertex="1" parent="1">
          <mxGeometry x="1576" y="10" width="180" height="150" as="geometry" />
        </mxCell>
        <mxCell id="VcmZQetqtOM01CaguKcr-101" value="" style="shape=tableRow;horizontal=0;startSize=0;swimlaneHead=0;swimlaneBody=0;fillColor=none;collapsible=0;dropTarget=0;points=[[0,0.5],[1,0.5]];portConstraint=eastwest;top=0;left=0;right=0;bottom=1;rounded=1;" vertex="1" parent="VcmZQetqtOM01CaguKcr-100">
          <mxGeometry y="30" width="180" height="30" as="geometry" />
        </mxCell>
        <mxCell id="VcmZQetqtOM01CaguKcr-102" value="PK" style="shape=partialRectangle;connectable=0;fillColor=none;top=0;left=0;bottom=0;right=0;fontStyle=1;overflow=hidden;whiteSpace=wrap;html=1;rounded=1;" vertex="1" parent="VcmZQetqtOM01CaguKcr-101">
          <mxGeometry width="30" height="30" as="geometry">
            <mxRectangle width="30" height="30" as="alternateBounds" />
          </mxGeometry>
        </mxCell>
        <mxCell id="VcmZQetqtOM01CaguKcr-103" value="UUID" style="shape=partialRectangle;connectable=0;fillColor=none;top=0;left=0;bottom=0;right=0;align=left;spacingLeft=6;fontStyle=5;overflow=hidden;whiteSpace=wrap;html=1;rounded=1;" vertex="1" parent="VcmZQetqtOM01CaguKcr-101">
          <mxGeometry x="30" width="150" height="30" as="geometry">
            <mxRectangle width="150" height="30" as="alternateBounds" />
          </mxGeometry>
        </mxCell>
        <mxCell id="VcmZQetqtOM01CaguKcr-104" value="" style="shape=tableRow;horizontal=0;startSize=0;swimlaneHead=0;swimlaneBody=0;fillColor=none;collapsible=0;dropTarget=0;points=[[0,0.5],[1,0.5]];portConstraint=eastwest;top=0;left=0;right=0;bottom=0;rounded=1;" vertex="1" parent="VcmZQetqtOM01CaguKcr-100">
          <mxGeometry y="60" width="180" height="30" as="geometry" />
        </mxCell>
        <mxCell id="VcmZQetqtOM01CaguKcr-105" value="" style="shape=partialRectangle;connectable=0;fillColor=none;top=0;left=0;bottom=0;right=0;editable=1;overflow=hidden;whiteSpace=wrap;html=1;rounded=1;" vertex="1" parent="VcmZQetqtOM01CaguKcr-104">
          <mxGeometry width="30" height="30" as="geometry">
            <mxRectangle width="30" height="30" as="alternateBounds" />
          </mxGeometry>
        </mxCell>
        <mxCell id="VcmZQetqtOM01CaguKcr-106" value="ES_JEFE" style="shape=partialRectangle;connectable=0;fillColor=none;top=0;left=0;bottom=0;right=0;align=left;spacingLeft=6;overflow=hidden;whiteSpace=wrap;html=1;rounded=1;" vertex="1" parent="VcmZQetqtOM01CaguKcr-104">
          <mxGeometry x="30" width="150" height="30" as="geometry">
            <mxRectangle width="150" height="30" as="alternateBounds" />
          </mxGeometry>
        </mxCell>
        <mxCell id="VcmZQetqtOM01CaguKcr-107" value="" style="shape=tableRow;horizontal=0;startSize=0;swimlaneHead=0;swimlaneBody=0;fillColor=none;collapsible=0;dropTarget=0;points=[[0,0.5],[1,0.5]];portConstraint=eastwest;top=0;left=0;right=0;bottom=0;rounded=1;" vertex="1" parent="VcmZQetqtOM01CaguKcr-100">
          <mxGeometry y="90" width="180" height="30" as="geometry" />
        </mxCell>
        <mxCell id="VcmZQetqtOM01CaguKcr-108" value="" style="shape=partialRectangle;connectable=0;fillColor=none;top=0;left=0;bottom=0;right=0;editable=1;overflow=hidden;whiteSpace=wrap;html=1;rounded=1;" vertex="1" parent="VcmZQetqtOM01CaguKcr-107">
          <mxGeometry width="30" height="30" as="geometry">
            <mxRectangle width="30" height="30" as="alternateBounds" />
          </mxGeometry>
        </mxCell>
        <mxCell id="VcmZQetqtOM01CaguKcr-109" value="NOMBRE" style="shape=partialRectangle;connectable=0;fillColor=none;top=0;left=0;bottom=0;right=0;align=left;spacingLeft=6;overflow=hidden;whiteSpace=wrap;html=1;rounded=1;" vertex="1" parent="VcmZQetqtOM01CaguKcr-107">
          <mxGeometry x="30" width="150" height="30" as="geometry">
            <mxRectangle width="150" height="30" as="alternateBounds" />
          </mxGeometry>
        </mxCell>
        <mxCell id="VcmZQetqtOM01CaguKcr-110" value="" style="shape=tableRow;horizontal=0;startSize=0;swimlaneHead=0;swimlaneBody=0;fillColor=none;collapsible=0;dropTarget=0;points=[[0,0.5],[1,0.5]];portConstraint=eastwest;top=0;left=0;right=0;bottom=0;rounded=1;" vertex="1" parent="VcmZQetqtOM01CaguKcr-100">
          <mxGeometry y="120" width="180" height="30" as="geometry" />
        </mxCell>
        <mxCell id="VcmZQetqtOM01CaguKcr-111" value="" style="shape=partialRectangle;connectable=0;fillColor=none;top=0;left=0;bottom=0;right=0;editable=1;overflow=hidden;whiteSpace=wrap;html=1;rounded=1;" vertex="1" parent="VcmZQetqtOM01CaguKcr-110">
          <mxGeometry width="30" height="30" as="geometry">
            <mxRectangle width="30" height="30" as="alternateBounds" />
          </mxGeometry>
        </mxCell>
        <mxCell id="VcmZQetqtOM01CaguKcr-112" value="Row 3" style="shape=partialRectangle;connectable=0;fillColor=none;top=0;left=0;bottom=0;right=0;align=left;spacingLeft=6;overflow=hidden;whiteSpace=wrap;html=1;rounded=1;" vertex="1" parent="VcmZQetqtOM01CaguKcr-110">
          <mxGeometry x="30" width="150" height="30" as="geometry">
            <mxRectangle width="150" height="30" as="alternateBounds" />
          </mxGeometry>
        </mxCell>
        <mxCell id="VcmZQetqtOM01CaguKcr-117" value="FK" style="shape=partialRectangle;connectable=0;fillColor=none;top=0;left=0;bottom=0;right=0;fontStyle=1;overflow=hidden;whiteSpace=wrap;html=1;rounded=1;" vertex="1" parent="1">
          <mxGeometry x="1576" y="70" width="30" height="30" as="geometry">
            <mxRectangle width="30" height="30" as="alternateBounds" />
          </mxGeometry>
        </mxCell>
        <mxCell id="VcmZQetqtOM01CaguKcr-118" value="&lt;font style=&quot;font-size: 14px;&quot;&gt;&lt;b&gt;RELACION TERNARIA&lt;/b&gt;&lt;/font&gt;" style="text;strokeColor=none;fillColor=none;spacingLeft=4;spacingRight=4;overflow=hidden;rotatable=0;points=[[0,0.5],[1,0.5]];portConstraint=eastwest;fontSize=12;whiteSpace=wrap;html=1;" vertex="1" parent="1">
          <mxGeometry x="139" y="894" width="179" height="30" as="geometry" />
        </mxCell>
        <mxCell id="VcmZQetqtOM01CaguKcr-137" style="rounded=1;orthogonalLoop=1;jettySize=auto;html=1;exitX=0.5;exitY=1;exitDx=0;exitDy=0;entryX=0.5;entryY=0;entryDx=0;entryDy=0;endArrow=none;startFill=0;" edge="1" parent="1" source="VcmZQetqtOM01CaguKcr-119" target="VcmZQetqtOM01CaguKcr-122">
          <mxGeometry relative="1" as="geometry" />
        </mxCell>
        <mxCell id="VcmZQetqtOM01CaguKcr-119" value="PROYECTO" style="rounded=1;arcSize=10;whiteSpace=wrap;html=1;align=center;" vertex="1" parent="1">
          <mxGeometry x="168.5" y="1072" width="100" height="40" as="geometry" />
        </mxCell>
        <mxCell id="VcmZQetqtOM01CaguKcr-120" value="EMPLEADO" style="rounded=1;arcSize=10;whiteSpace=wrap;html=1;align=center;" vertex="1" parent="1">
          <mxGeometry x="-56" y="1184" width="100" height="40" as="geometry" />
        </mxCell>
        <mxCell id="VcmZQetqtOM01CaguKcr-146" style="rounded=1;orthogonalLoop=1;jettySize=auto;html=1;exitX=1;exitY=0.5;exitDx=0;exitDy=0;entryX=0;entryY=0.5;entryDx=0;entryDy=0;endArrow=none;startFill=0;" edge="1" parent="1" source="VcmZQetqtOM01CaguKcr-121" target="VcmZQetqtOM01CaguKcr-130">
          <mxGeometry relative="1" as="geometry" />
        </mxCell>
        <mxCell id="VcmZQetqtOM01CaguKcr-121" value="CLIENTE" style="rounded=1;arcSize=10;whiteSpace=wrap;html=1;align=center;" vertex="1" parent="1">
          <mxGeometry x="392" y="1184" width="100" height="40" as="geometry" />
        </mxCell>
        <mxCell id="VcmZQetqtOM01CaguKcr-138" style="rounded=1;orthogonalLoop=1;jettySize=auto;html=1;exitX=0.5;exitY=1;exitDx=0;exitDy=0;endArrow=none;startFill=0;" edge="1" parent="1" source="VcmZQetqtOM01CaguKcr-122" target="VcmZQetqtOM01CaguKcr-133">
          <mxGeometry relative="1" as="geometry" />
        </mxCell>
        <mxCell id="VcmZQetqtOM01CaguKcr-139" style="rounded=1;orthogonalLoop=1;jettySize=auto;html=1;exitX=1;exitY=1;exitDx=0;exitDy=0;entryX=0;entryY=0;entryDx=0;entryDy=0;endArrow=none;startFill=0;" edge="1" parent="1" source="VcmZQetqtOM01CaguKcr-122" target="VcmZQetqtOM01CaguKcr-134">
          <mxGeometry relative="1" as="geometry" />
        </mxCell>
        <mxCell id="VcmZQetqtOM01CaguKcr-144" style="rounded=1;orthogonalLoop=1;jettySize=auto;html=1;exitX=0;exitY=0.5;exitDx=0;exitDy=0;entryX=1;entryY=0.5;entryDx=0;entryDy=0;endArrow=none;startFill=0;" edge="1" parent="1" source="VcmZQetqtOM01CaguKcr-122" target="VcmZQetqtOM01CaguKcr-120">
          <mxGeometry relative="1" as="geometry" />
        </mxCell>
        <mxCell id="VcmZQetqtOM01CaguKcr-122" value="ASIGNADO" style="shape=rhombus;perimeter=rhombusPerimeter;whiteSpace=wrap;html=1;align=center;rounded=1;" vertex="1" parent="1">
          <mxGeometry x="158.5" y="1174" width="120" height="60" as="geometry" />
        </mxCell>
        <mxCell id="VcmZQetqtOM01CaguKcr-149" style="rounded=1;orthogonalLoop=1;jettySize=auto;html=1;exitX=1;exitY=0.5;exitDx=0;exitDy=0;entryX=0;entryY=0;entryDx=0;entryDy=0;endArrow=none;startFill=0;" edge="1" parent="1" source="VcmZQetqtOM01CaguKcr-123" target="VcmZQetqtOM01CaguKcr-120">
          <mxGeometry relative="1" as="geometry" />
        </mxCell>
        <mxCell id="VcmZQetqtOM01CaguKcr-123" value="NOMBRE" style="ellipse;whiteSpace=wrap;html=1;align=center;rounded=1;" vertex="1" parent="1">
          <mxGeometry x="-264" y="1096" width="100" height="40" as="geometry" />
        </mxCell>
        <mxCell id="VcmZQetqtOM01CaguKcr-147" style="rounded=1;orthogonalLoop=1;jettySize=auto;html=1;exitX=0;exitY=0.5;exitDx=0;exitDy=0;entryX=1;entryY=0;entryDx=0;entryDy=0;endArrow=none;startFill=0;" edge="1" parent="1" source="VcmZQetqtOM01CaguKcr-126" target="VcmZQetqtOM01CaguKcr-121">
          <mxGeometry relative="1" as="geometry" />
        </mxCell>
        <mxCell id="VcmZQetqtOM01CaguKcr-126" value="NOMBRE" style="ellipse;whiteSpace=wrap;html=1;align=center;rounded=1;" vertex="1" parent="1">
          <mxGeometry x="592" y="1096" width="100" height="40" as="geometry" />
        </mxCell>
        <mxCell id="VcmZQetqtOM01CaguKcr-136" style="rounded=1;orthogonalLoop=1;jettySize=auto;html=1;exitX=0;exitY=1;exitDx=0;exitDy=0;entryX=1;entryY=0;entryDx=0;entryDy=0;endArrow=none;startFill=0;" edge="1" parent="1" source="VcmZQetqtOM01CaguKcr-127" target="VcmZQetqtOM01CaguKcr-119">
          <mxGeometry relative="1" as="geometry" />
        </mxCell>
        <mxCell id="VcmZQetqtOM01CaguKcr-127" value="NOMBRE" style="ellipse;whiteSpace=wrap;html=1;align=center;rounded=1;" vertex="1" parent="1">
          <mxGeometry x="324" y="960" width="100" height="40" as="geometry" />
        </mxCell>
        <mxCell id="VcmZQetqtOM01CaguKcr-148" style="rounded=1;orthogonalLoop=1;jettySize=auto;html=1;exitX=1;exitY=0.5;exitDx=0;exitDy=0;entryX=0;entryY=0.5;entryDx=0;entryDy=0;endArrow=none;startFill=0;" edge="1" parent="1" source="VcmZQetqtOM01CaguKcr-128" target="VcmZQetqtOM01CaguKcr-120">
          <mxGeometry relative="1" as="geometry" />
        </mxCell>
        <mxCell id="VcmZQetqtOM01CaguKcr-128" value="&lt;span style=&quot;border-bottom: 1px dotted&quot;&gt;UUID&lt;/span&gt;" style="ellipse;whiteSpace=wrap;html=1;align=center;rounded=1;" vertex="1" parent="1">
          <mxGeometry x="-304" y="1184" width="100" height="40" as="geometry" />
        </mxCell>
        <mxCell id="VcmZQetqtOM01CaguKcr-135" style="rounded=1;orthogonalLoop=1;jettySize=auto;html=1;exitX=1;exitY=1;exitDx=0;exitDy=0;entryX=0;entryY=0;entryDx=0;entryDy=0;endArrow=none;startFill=0;" edge="1" parent="1" source="VcmZQetqtOM01CaguKcr-129" target="VcmZQetqtOM01CaguKcr-119">
          <mxGeometry relative="1" as="geometry" />
        </mxCell>
        <mxCell id="VcmZQetqtOM01CaguKcr-129" value="&lt;span style=&quot;border-bottom: 1px dotted&quot;&gt;UUID&lt;/span&gt;" style="ellipse;whiteSpace=wrap;html=1;align=center;rounded=1;" vertex="1" parent="1">
          <mxGeometry x="8" y="960" width="100" height="40" as="geometry" />
        </mxCell>
        <mxCell id="VcmZQetqtOM01CaguKcr-130" value="&lt;span style=&quot;border-bottom: 1px dotted&quot;&gt;UUID&lt;/span&gt;" style="ellipse;whiteSpace=wrap;html=1;align=center;rounded=1;" vertex="1" parent="1">
          <mxGeometry x="592" y="1184" width="100" height="40" as="geometry" />
        </mxCell>
        <mxCell id="VcmZQetqtOM01CaguKcr-140" style="rounded=1;orthogonalLoop=1;jettySize=auto;html=1;exitX=1;exitY=0;exitDx=0;exitDy=0;entryX=0;entryY=1;entryDx=0;entryDy=0;endArrow=none;startFill=0;" edge="1" parent="1" source="VcmZQetqtOM01CaguKcr-132" target="VcmZQetqtOM01CaguKcr-122">
          <mxGeometry relative="1" as="geometry" />
        </mxCell>
        <mxCell id="VcmZQetqtOM01CaguKcr-132" value="FECHA_CREACION" style="ellipse;whiteSpace=wrap;html=1;align=center;rounded=1;" vertex="1" parent="1">
          <mxGeometry x="-20" y="1328" width="144" height="40" as="geometry" />
        </mxCell>
        <mxCell id="VcmZQetqtOM01CaguKcr-133" value="FECHA_ASIGNACION" style="ellipse;whiteSpace=wrap;html=1;align=center;rounded=1;" vertex="1" parent="1">
          <mxGeometry x="152" y="1328" width="132.5" height="40" as="geometry" />
        </mxCell>
        <mxCell id="VcmZQetqtOM01CaguKcr-134" value="FECHA_TERMINO" style="ellipse;whiteSpace=wrap;html=1;align=center;rounded=1;" vertex="1" parent="1">
          <mxGeometry x="318" y="1328" width="128" height="40" as="geometry" />
        </mxCell>
        <mxCell id="VcmZQetqtOM01CaguKcr-145" style="rounded=1;orthogonalLoop=1;jettySize=auto;html=1;exitX=0;exitY=0.5;exitDx=0;exitDy=0;entryX=0.946;entryY=0.5;entryDx=0;entryDy=0;entryPerimeter=0;endArrow=none;startFill=0;" edge="1" parent="1" source="VcmZQetqtOM01CaguKcr-121" target="VcmZQetqtOM01CaguKcr-122">
          <mxGeometry relative="1" as="geometry" />
        </mxCell>
        <mxCell id="VcmZQetqtOM01CaguKcr-150" value="EMPLEADO" style="shape=table;startSize=30;container=1;collapsible=1;childLayout=tableLayout;fixedRows=1;rowLines=0;fontStyle=1;align=center;resizeLast=1;html=1;rounded=1;" vertex="1" parent="1">
          <mxGeometry x="-304" y="1424" width="180" height="90" as="geometry" />
        </mxCell>
        <mxCell id="VcmZQetqtOM01CaguKcr-151" value="" style="shape=tableRow;horizontal=0;startSize=0;swimlaneHead=0;swimlaneBody=0;fillColor=none;collapsible=0;dropTarget=0;points=[[0,0.5],[1,0.5]];portConstraint=eastwest;top=0;left=0;right=0;bottom=1;rounded=1;" vertex="1" parent="VcmZQetqtOM01CaguKcr-150">
          <mxGeometry y="30" width="180" height="30" as="geometry" />
        </mxCell>
        <mxCell id="VcmZQetqtOM01CaguKcr-152" value="PK" style="shape=partialRectangle;connectable=0;fillColor=none;top=0;left=0;bottom=0;right=0;fontStyle=1;overflow=hidden;whiteSpace=wrap;html=1;rounded=1;" vertex="1" parent="VcmZQetqtOM01CaguKcr-151">
          <mxGeometry width="40" height="30" as="geometry">
            <mxRectangle width="40" height="30" as="alternateBounds" />
          </mxGeometry>
        </mxCell>
        <mxCell id="VcmZQetqtOM01CaguKcr-153" value="UUID" style="shape=partialRectangle;connectable=0;fillColor=none;top=0;left=0;bottom=0;right=0;align=left;spacingLeft=6;fontStyle=5;overflow=hidden;whiteSpace=wrap;html=1;rounded=1;" vertex="1" parent="VcmZQetqtOM01CaguKcr-151">
          <mxGeometry x="40" width="140" height="30" as="geometry">
            <mxRectangle width="140" height="30" as="alternateBounds" />
          </mxGeometry>
        </mxCell>
        <mxCell id="VcmZQetqtOM01CaguKcr-154" value="" style="shape=tableRow;horizontal=0;startSize=0;swimlaneHead=0;swimlaneBody=0;fillColor=none;collapsible=0;dropTarget=0;points=[[0,0.5],[1,0.5]];portConstraint=eastwest;top=0;left=0;right=0;bottom=0;rounded=1;" vertex="1" parent="VcmZQetqtOM01CaguKcr-150">
          <mxGeometry y="60" width="180" height="30" as="geometry" />
        </mxCell>
        <mxCell id="VcmZQetqtOM01CaguKcr-155" value="" style="shape=partialRectangle;connectable=0;fillColor=none;top=0;left=0;bottom=0;right=0;editable=1;overflow=hidden;whiteSpace=wrap;html=1;rounded=1;" vertex="1" parent="VcmZQetqtOM01CaguKcr-154">
          <mxGeometry width="40" height="30" as="geometry">
            <mxRectangle width="40" height="30" as="alternateBounds" />
          </mxGeometry>
        </mxCell>
        <mxCell id="VcmZQetqtOM01CaguKcr-156" value="NOMBRE" style="shape=partialRectangle;connectable=0;fillColor=none;top=0;left=0;bottom=0;right=0;align=left;spacingLeft=6;overflow=hidden;whiteSpace=wrap;html=1;rounded=1;" vertex="1" parent="VcmZQetqtOM01CaguKcr-154">
          <mxGeometry x="40" width="140" height="30" as="geometry">
            <mxRectangle width="140" height="30" as="alternateBounds" />
          </mxGeometry>
        </mxCell>
        <mxCell id="VcmZQetqtOM01CaguKcr-176" value="CLIENTE" style="shape=table;startSize=30;container=1;collapsible=1;childLayout=tableLayout;fixedRows=1;rowLines=0;fontStyle=1;align=center;resizeLast=1;html=1;rounded=1;" vertex="1" parent="1">
          <mxGeometry x="224" y="1400" width="180" height="90" as="geometry" />
        </mxCell>
        <mxCell id="VcmZQetqtOM01CaguKcr-177" value="" style="shape=tableRow;horizontal=0;startSize=0;swimlaneHead=0;swimlaneBody=0;fillColor=none;collapsible=0;dropTarget=0;points=[[0,0.5],[1,0.5]];portConstraint=eastwest;top=0;left=0;right=0;bottom=1;rounded=1;" vertex="1" parent="VcmZQetqtOM01CaguKcr-176">
          <mxGeometry y="30" width="180" height="30" as="geometry" />
        </mxCell>
        <mxCell id="VcmZQetqtOM01CaguKcr-178" value="PK" style="shape=partialRectangle;connectable=0;fillColor=none;top=0;left=0;bottom=0;right=0;fontStyle=1;overflow=hidden;whiteSpace=wrap;html=1;rounded=1;" vertex="1" parent="VcmZQetqtOM01CaguKcr-177">
          <mxGeometry width="40" height="30" as="geometry">
            <mxRectangle width="40" height="30" as="alternateBounds" />
          </mxGeometry>
        </mxCell>
        <mxCell id="VcmZQetqtOM01CaguKcr-179" value="UUID" style="shape=partialRectangle;connectable=0;fillColor=none;top=0;left=0;bottom=0;right=0;align=left;spacingLeft=6;fontStyle=5;overflow=hidden;whiteSpace=wrap;html=1;rounded=1;" vertex="1" parent="VcmZQetqtOM01CaguKcr-177">
          <mxGeometry x="40" width="140" height="30" as="geometry">
            <mxRectangle width="140" height="30" as="alternateBounds" />
          </mxGeometry>
        </mxCell>
        <mxCell id="VcmZQetqtOM01CaguKcr-180" value="" style="shape=tableRow;horizontal=0;startSize=0;swimlaneHead=0;swimlaneBody=0;fillColor=none;collapsible=0;dropTarget=0;points=[[0,0.5],[1,0.5]];portConstraint=eastwest;top=0;left=0;right=0;bottom=0;rounded=1;" vertex="1" parent="VcmZQetqtOM01CaguKcr-176">
          <mxGeometry y="60" width="180" height="30" as="geometry" />
        </mxCell>
        <mxCell id="VcmZQetqtOM01CaguKcr-181" value="" style="shape=partialRectangle;connectable=0;fillColor=none;top=0;left=0;bottom=0;right=0;editable=1;overflow=hidden;whiteSpace=wrap;html=1;rounded=1;" vertex="1" parent="VcmZQetqtOM01CaguKcr-180">
          <mxGeometry width="40" height="30" as="geometry">
            <mxRectangle width="40" height="30" as="alternateBounds" />
          </mxGeometry>
        </mxCell>
        <mxCell id="VcmZQetqtOM01CaguKcr-182" value="NOMBRE" style="shape=partialRectangle;connectable=0;fillColor=none;top=0;left=0;bottom=0;right=0;align=left;spacingLeft=6;overflow=hidden;whiteSpace=wrap;html=1;rounded=1;" vertex="1" parent="VcmZQetqtOM01CaguKcr-180">
          <mxGeometry x="40" width="140" height="30" as="geometry">
            <mxRectangle width="140" height="30" as="alternateBounds" />
          </mxGeometry>
        </mxCell>
        <mxCell id="VcmZQetqtOM01CaguKcr-189" value="PROYECTO" style="shape=table;startSize=30;container=1;collapsible=1;childLayout=tableLayout;fixedRows=1;rowLines=0;fontStyle=1;align=center;resizeLast=1;html=1;rounded=1;" vertex="1" parent="1">
          <mxGeometry x="224" y="1504" width="180" height="90" as="geometry" />
        </mxCell>
        <mxCell id="VcmZQetqtOM01CaguKcr-190" value="" style="shape=tableRow;horizontal=0;startSize=0;swimlaneHead=0;swimlaneBody=0;fillColor=none;collapsible=0;dropTarget=0;points=[[0,0.5],[1,0.5]];portConstraint=eastwest;top=0;left=0;right=0;bottom=1;rounded=1;" vertex="1" parent="VcmZQetqtOM01CaguKcr-189">
          <mxGeometry y="30" width="180" height="30" as="geometry" />
        </mxCell>
        <mxCell id="VcmZQetqtOM01CaguKcr-191" value="PK" style="shape=partialRectangle;connectable=0;fillColor=none;top=0;left=0;bottom=0;right=0;fontStyle=1;overflow=hidden;whiteSpace=wrap;html=1;rounded=1;" vertex="1" parent="VcmZQetqtOM01CaguKcr-190">
          <mxGeometry width="40" height="30" as="geometry">
            <mxRectangle width="40" height="30" as="alternateBounds" />
          </mxGeometry>
        </mxCell>
        <mxCell id="VcmZQetqtOM01CaguKcr-192" value="UUID" style="shape=partialRectangle;connectable=0;fillColor=none;top=0;left=0;bottom=0;right=0;align=left;spacingLeft=6;fontStyle=5;overflow=hidden;whiteSpace=wrap;html=1;rounded=1;" vertex="1" parent="VcmZQetqtOM01CaguKcr-190">
          <mxGeometry x="40" width="140" height="30" as="geometry">
            <mxRectangle width="140" height="30" as="alternateBounds" />
          </mxGeometry>
        </mxCell>
        <mxCell id="VcmZQetqtOM01CaguKcr-193" value="" style="shape=tableRow;horizontal=0;startSize=0;swimlaneHead=0;swimlaneBody=0;fillColor=none;collapsible=0;dropTarget=0;points=[[0,0.5],[1,0.5]];portConstraint=eastwest;top=0;left=0;right=0;bottom=0;rounded=1;" vertex="1" parent="VcmZQetqtOM01CaguKcr-189">
          <mxGeometry y="60" width="180" height="30" as="geometry" />
        </mxCell>
        <mxCell id="VcmZQetqtOM01CaguKcr-194" value="" style="shape=partialRectangle;connectable=0;fillColor=none;top=0;left=0;bottom=0;right=0;editable=1;overflow=hidden;whiteSpace=wrap;html=1;rounded=1;" vertex="1" parent="VcmZQetqtOM01CaguKcr-193">
          <mxGeometry width="40" height="30" as="geometry">
            <mxRectangle width="40" height="30" as="alternateBounds" />
          </mxGeometry>
        </mxCell>
        <mxCell id="VcmZQetqtOM01CaguKcr-195" value="NOMBRE" style="shape=partialRectangle;connectable=0;fillColor=none;top=0;left=0;bottom=0;right=0;align=left;spacingLeft=6;overflow=hidden;whiteSpace=wrap;html=1;rounded=1;" vertex="1" parent="VcmZQetqtOM01CaguKcr-193">
          <mxGeometry x="40" width="140" height="30" as="geometry">
            <mxRectangle width="140" height="30" as="alternateBounds" />
          </mxGeometry>
        </mxCell>
        <mxCell id="VcmZQetqtOM01CaguKcr-208" value="Table" style="shape=table;startSize=30;container=1;collapsible=1;childLayout=tableLayout;fixedRows=1;rowLines=0;fontStyle=1;align=center;resizeLast=1;html=1;whiteSpace=wrap;rounded=1;" vertex="1" parent="1">
          <mxGeometry x="-44" y="1416" width="180" height="240" as="geometry" />
        </mxCell>
        <mxCell id="VcmZQetqtOM01CaguKcr-209" value="" style="shape=tableRow;horizontal=0;startSize=0;swimlaneHead=0;swimlaneBody=0;fillColor=none;collapsible=0;dropTarget=0;points=[[0,0.5],[1,0.5]];portConstraint=eastwest;top=0;left=0;right=0;bottom=0;html=1;rounded=1;" vertex="1" parent="VcmZQetqtOM01CaguKcr-208">
          <mxGeometry y="30" width="180" height="30" as="geometry" />
        </mxCell>
        <mxCell id="VcmZQetqtOM01CaguKcr-210" value="PK" style="shape=partialRectangle;connectable=0;fillColor=none;top=0;left=0;bottom=0;right=0;fontStyle=1;overflow=hidden;html=1;whiteSpace=wrap;rounded=1;" vertex="1" parent="VcmZQetqtOM01CaguKcr-209">
          <mxGeometry width="44" height="30" as="geometry">
            <mxRectangle width="44" height="30" as="alternateBounds" />
          </mxGeometry>
        </mxCell>
        <mxCell id="VcmZQetqtOM01CaguKcr-211" value="UUID" style="shape=partialRectangle;connectable=0;fillColor=none;top=0;left=0;bottom=0;right=0;align=left;spacingLeft=6;fontStyle=5;overflow=hidden;html=1;whiteSpace=wrap;rounded=1;" vertex="1" parent="VcmZQetqtOM01CaguKcr-209">
          <mxGeometry x="44" width="136" height="30" as="geometry">
            <mxRectangle width="136" height="30" as="alternateBounds" />
          </mxGeometry>
        </mxCell>
        <mxCell id="VcmZQetqtOM01CaguKcr-237" value="" style="shape=tableRow;horizontal=0;startSize=0;swimlaneHead=0;swimlaneBody=0;fillColor=none;collapsible=0;dropTarget=0;points=[[0,0.5],[1,0.5]];portConstraint=eastwest;top=0;left=0;right=0;bottom=0;html=1;rounded=1;" vertex="1" parent="VcmZQetqtOM01CaguKcr-208">
          <mxGeometry y="60" width="180" height="30" as="geometry" />
        </mxCell>
        <mxCell id="VcmZQetqtOM01CaguKcr-238" value="FK" style="shape=partialRectangle;connectable=0;fillColor=none;top=0;left=0;bottom=0;right=0;fontStyle=1;overflow=hidden;html=1;whiteSpace=wrap;rounded=1;" vertex="1" parent="VcmZQetqtOM01CaguKcr-237">
          <mxGeometry width="44" height="30" as="geometry">
            <mxRectangle width="44" height="30" as="alternateBounds" />
          </mxGeometry>
        </mxCell>
        <mxCell id="VcmZQetqtOM01CaguKcr-239" value="CLIENTE_UUID" style="shape=partialRectangle;connectable=0;fillColor=none;top=0;left=0;bottom=0;right=0;align=left;spacingLeft=6;fontStyle=5;overflow=hidden;html=1;whiteSpace=wrap;rounded=1;" vertex="1" parent="VcmZQetqtOM01CaguKcr-237">
          <mxGeometry x="44" width="136" height="30" as="geometry">
            <mxRectangle width="136" height="30" as="alternateBounds" />
          </mxGeometry>
        </mxCell>
        <mxCell id="VcmZQetqtOM01CaguKcr-243" value="" style="shape=tableRow;horizontal=0;startSize=0;swimlaneHead=0;swimlaneBody=0;fillColor=none;collapsible=0;dropTarget=0;points=[[0,0.5],[1,0.5]];portConstraint=eastwest;top=0;left=0;right=0;bottom=0;html=1;rounded=1;" vertex="1" parent="VcmZQetqtOM01CaguKcr-208">
          <mxGeometry y="90" width="180" height="30" as="geometry" />
        </mxCell>
        <mxCell id="VcmZQetqtOM01CaguKcr-244" value="FK" style="shape=partialRectangle;connectable=0;fillColor=none;top=0;left=0;bottom=0;right=0;fontStyle=1;overflow=hidden;html=1;whiteSpace=wrap;rounded=1;" vertex="1" parent="VcmZQetqtOM01CaguKcr-243">
          <mxGeometry width="44" height="30" as="geometry">
            <mxRectangle width="44" height="30" as="alternateBounds" />
          </mxGeometry>
        </mxCell>
        <mxCell id="VcmZQetqtOM01CaguKcr-245" value="PROYECTO_UUID" style="shape=partialRectangle;connectable=0;fillColor=none;top=0;left=0;bottom=0;right=0;align=left;spacingLeft=6;fontStyle=5;overflow=hidden;html=1;whiteSpace=wrap;rounded=1;" vertex="1" parent="VcmZQetqtOM01CaguKcr-243">
          <mxGeometry x="44" width="136" height="30" as="geometry">
            <mxRectangle width="136" height="30" as="alternateBounds" />
          </mxGeometry>
        </mxCell>
        <mxCell id="VcmZQetqtOM01CaguKcr-212" value="" style="shape=tableRow;horizontal=0;startSize=0;swimlaneHead=0;swimlaneBody=0;fillColor=none;collapsible=0;dropTarget=0;points=[[0,0.5],[1,0.5]];portConstraint=eastwest;top=0;left=0;right=0;bottom=1;html=1;rounded=1;" vertex="1" parent="VcmZQetqtOM01CaguKcr-208">
          <mxGeometry y="120" width="180" height="30" as="geometry" />
        </mxCell>
        <mxCell id="VcmZQetqtOM01CaguKcr-213" value="FK" style="shape=partialRectangle;connectable=0;fillColor=none;top=0;left=0;bottom=0;right=0;fontStyle=1;overflow=hidden;html=1;whiteSpace=wrap;rounded=1;" vertex="1" parent="VcmZQetqtOM01CaguKcr-212">
          <mxGeometry width="44" height="30" as="geometry">
            <mxRectangle width="44" height="30" as="alternateBounds" />
          </mxGeometry>
        </mxCell>
        <mxCell id="VcmZQetqtOM01CaguKcr-214" value="EMPLEADO_UUID" style="shape=partialRectangle;connectable=0;fillColor=none;top=0;left=0;bottom=0;right=0;align=left;spacingLeft=6;fontStyle=5;overflow=hidden;html=1;whiteSpace=wrap;rounded=1;" vertex="1" parent="VcmZQetqtOM01CaguKcr-212">
          <mxGeometry x="44" width="136" height="30" as="geometry">
            <mxRectangle width="136" height="30" as="alternateBounds" />
          </mxGeometry>
        </mxCell>
        <mxCell id="VcmZQetqtOM01CaguKcr-215" value="" style="shape=tableRow;horizontal=0;startSize=0;swimlaneHead=0;swimlaneBody=0;fillColor=none;collapsible=0;dropTarget=0;points=[[0,0.5],[1,0.5]];portConstraint=eastwest;top=0;left=0;right=0;bottom=0;html=1;rounded=1;" vertex="1" parent="VcmZQetqtOM01CaguKcr-208">
          <mxGeometry y="150" width="180" height="30" as="geometry" />
        </mxCell>
        <mxCell id="VcmZQetqtOM01CaguKcr-216" value="" style="shape=partialRectangle;connectable=0;fillColor=none;top=0;left=0;bottom=0;right=0;editable=1;overflow=hidden;html=1;whiteSpace=wrap;rounded=1;" vertex="1" parent="VcmZQetqtOM01CaguKcr-215">
          <mxGeometry width="44" height="30" as="geometry">
            <mxRectangle width="44" height="30" as="alternateBounds" />
          </mxGeometry>
        </mxCell>
        <mxCell id="VcmZQetqtOM01CaguKcr-217" value="FECHA_CREACION" style="shape=partialRectangle;connectable=0;fillColor=none;top=0;left=0;bottom=0;right=0;align=left;spacingLeft=6;overflow=hidden;html=1;whiteSpace=wrap;rounded=1;" vertex="1" parent="VcmZQetqtOM01CaguKcr-215">
          <mxGeometry x="44" width="136" height="30" as="geometry">
            <mxRectangle width="136" height="30" as="alternateBounds" />
          </mxGeometry>
        </mxCell>
        <mxCell id="VcmZQetqtOM01CaguKcr-218" value="" style="shape=tableRow;horizontal=0;startSize=0;swimlaneHead=0;swimlaneBody=0;fillColor=none;collapsible=0;dropTarget=0;points=[[0,0.5],[1,0.5]];portConstraint=eastwest;top=0;left=0;right=0;bottom=0;html=1;rounded=1;" vertex="1" parent="VcmZQetqtOM01CaguKcr-208">
          <mxGeometry y="180" width="180" height="30" as="geometry" />
        </mxCell>
        <mxCell id="VcmZQetqtOM01CaguKcr-219" value="" style="shape=partialRectangle;connectable=0;fillColor=none;top=0;left=0;bottom=0;right=0;editable=1;overflow=hidden;html=1;whiteSpace=wrap;rounded=1;" vertex="1" parent="VcmZQetqtOM01CaguKcr-218">
          <mxGeometry width="44" height="30" as="geometry">
            <mxRectangle width="44" height="30" as="alternateBounds" />
          </mxGeometry>
        </mxCell>
        <mxCell id="VcmZQetqtOM01CaguKcr-220" value="FECHA_ASIGNACION" style="shape=partialRectangle;connectable=0;fillColor=none;top=0;left=0;bottom=0;right=0;align=left;spacingLeft=6;overflow=hidden;html=1;whiteSpace=wrap;rounded=1;" vertex="1" parent="VcmZQetqtOM01CaguKcr-218">
          <mxGeometry x="44" width="136" height="30" as="geometry">
            <mxRectangle width="136" height="30" as="alternateBounds" />
          </mxGeometry>
        </mxCell>
        <mxCell id="VcmZQetqtOM01CaguKcr-265" value="" style="shape=tableRow;horizontal=0;startSize=0;swimlaneHead=0;swimlaneBody=0;fillColor=none;collapsible=0;dropTarget=0;points=[[0,0.5],[1,0.5]];portConstraint=eastwest;top=0;left=0;right=0;bottom=0;html=1;rounded=1;" vertex="1" parent="VcmZQetqtOM01CaguKcr-208">
          <mxGeometry y="210" width="180" height="30" as="geometry" />
        </mxCell>
        <mxCell id="VcmZQetqtOM01CaguKcr-266" value="" style="shape=partialRectangle;connectable=0;fillColor=none;top=0;left=0;bottom=0;right=0;editable=1;overflow=hidden;html=1;whiteSpace=wrap;rounded=1;" vertex="1" parent="VcmZQetqtOM01CaguKcr-265">
          <mxGeometry width="44" height="30" as="geometry">
            <mxRectangle width="44" height="30" as="alternateBounds" />
          </mxGeometry>
        </mxCell>
        <mxCell id="VcmZQetqtOM01CaguKcr-267" value="FECHA_TERMINO" style="shape=partialRectangle;connectable=0;fillColor=none;top=0;left=0;bottom=0;right=0;align=left;spacingLeft=6;overflow=hidden;html=1;whiteSpace=wrap;rounded=1;" vertex="1" parent="VcmZQetqtOM01CaguKcr-265">
          <mxGeometry x="44" width="136" height="30" as="geometry">
            <mxRectangle width="136" height="30" as="alternateBounds" />
          </mxGeometry>
        </mxCell>
        <mxCell id="VcmZQetqtOM01CaguKcr-270" style="edgeStyle=orthogonalEdgeStyle;rounded=1;orthogonalLoop=1;jettySize=auto;html=1;exitX=0;exitY=0.5;exitDx=0;exitDy=0;entryX=1.044;entryY=0.667;entryDx=0;entryDy=0;entryPerimeter=0;" edge="1" parent="1" source="VcmZQetqtOM01CaguKcr-177" target="VcmZQetqtOM01CaguKcr-237">
          <mxGeometry relative="1" as="geometry" />
        </mxCell>
        <mxCell id="VcmZQetqtOM01CaguKcr-271" style="edgeStyle=orthogonalEdgeStyle;rounded=1;orthogonalLoop=1;jettySize=auto;html=1;exitX=0;exitY=0.5;exitDx=0;exitDy=0;" edge="1" parent="1" source="VcmZQetqtOM01CaguKcr-190" target="VcmZQetqtOM01CaguKcr-243">
          <mxGeometry relative="1" as="geometry" />
        </mxCell>
        <mxCell id="VcmZQetqtOM01CaguKcr-272" style="edgeStyle=orthogonalEdgeStyle;rounded=1;orthogonalLoop=1;jettySize=auto;html=1;exitX=1;exitY=0.5;exitDx=0;exitDy=0;entryX=-0.033;entryY=0.562;entryDx=0;entryDy=0;entryPerimeter=0;" edge="1" parent="1" source="VcmZQetqtOM01CaguKcr-151" target="VcmZQetqtOM01CaguKcr-212">
          <mxGeometry relative="1" as="geometry" />
        </mxCell>
      </root>
    </mxGraphModel>
  </diagram>
</mxfile>
